Coordinates
version=1
nRows=4
nColumns=63
inDegrees=yes

Units are S.I. units (second, meters, Newtons, ...)
If the header above contains a line with 'inDegrees', this indicates whether rotational values are in degrees (yes) or radians (no).

endheader
time	pelvis_tilt	pelvis_list	pelvis_rotation	pelvis_tx	pelvis_ty	pelvis_tz	hip_flexion_r	hip_adduction_r	hip_rotation_r	knee_angle_r	knee_angle_r_beta	ankle_angle_r	subtalar_angle_r	mtp_angle_r	hip_flexion_l	hip_adduction_l	hip_rotation_l	knee_angle_l	knee_angle_l_beta	ankle_angle_l	subtalar_angle_l	mtp_angle_l	L5_S1_Flex_Ext	L5_S1_Lat_Bending	L5_S1_axial_rotation	L4_L5_Flex_Ext	L4_L5_Lat_Bending	L4_L5_axial_rotation	L3_L4_Flex_Ext	L3_L4_Lat_Bending	L3_L4_axial_rotation	L2_L3_Flex_Ext	L2_L3_Lat_Bending	L2_L3_axial_rotation	L1_L2_Flex_Ext	L1_L2_Lat_Bending	L1_L2_axial_rotation	L1_T12_Flex_Ext	L1_T12_Lat_Bending	L1_T12_axial_rotation	Abs_r3	Abs_r2	Abs_r1	Abs_t1	Abs_t2	neck_flexion	neck_bending	neck_rotation	arm_flex_r	arm_add_r	arm_rot_r	elbow_flex_r	pro_sup_r	wrist_flex_r	wrist_dev_r	arm_flex_l	arm_add_l	arm_rot_l	elbow_flex_l	pro_sup_l	wrist_flex_l	wrist_dev_l
      2.78333333	     -0.47452034	     -2.20180028	     91.66829977	      0.16054788	      0.81450669	      0.74124243	      5.06189824	     -0.79134744	    -14.23316401	     15.31414981	      0.26728234	     33.39964169	     17.71700859	      0.00000000	      2.19674892	     -0.73470934	     -6.63211535	     11.40078150	      0.19898117	     24.48083179	     -1.79457614	      0.00000000	     -0.03422474	     -0.38078451	      3.75698100	     -0.06355876	     -0.50644339	      3.99179231	     -0.05622782	     -0.92583945	      3.99179231	     -0.03911545	     -0.92583945	      3.28735837	     -0.03178109	     -0.77649576	      3.05254706	     -0.01955601	     -0.58983520	      2.81773575	     -0.24446387	     -4.30751049	     20.89520122	      0.00000000	      0.00000000	      3.15476731	      2.91076272	    -11.43510241	     -9.25982315	    -11.26841746	     14.05160014	     34.64153604	     87.33271022	     -6.92637042	      3.22379070	     14.30064449	     -9.89978982	    118.51836162	      8.98958421	     22.01362436	    -10.61074888	    -12.90861247
      2.80000000	     -0.31118488	     -2.18080286	     92.35376234	      0.15901934	      0.81452790	      0.74127261	      5.04013492	     -0.66727710	    -14.57600543	     15.27500794	      0.26659918	     33.72319670	     17.62207990	      0.00000000	      2.37200749	     -0.89774038	     -6.54315049	     11.68694939	      0.20397575	     24.70024453	     -1.48518123	      0.00000000	     -0.07701970	     -0.37063958	      3.65414383	     -0.14303329	     -0.49295064	      3.88252782	     -0.12653567	     -0.90117307	      3.88252782	     -0.08802582	     -0.90117307	      3.19737585	     -0.07152050	     -0.75580823	      2.96899186	     -0.04400906	     -0.57412071	      2.74060787	     -0.55014403	     -4.19274904	     20.32325174	      0.00000000	      0.00000000	      2.37490078	      3.80895439	     -6.01934306	     -9.26140659	    -11.27139707	     13.06928388	     35.80843406	     86.94932732	     -5.78417163	      5.64680086	     13.77269238	     -9.66897010	    118.35466648	      8.20607566	     22.61443931	     -9.74817814	    -12.86823026
      2.81666667	     -0.12188723	     -2.16102990	     93.19757612	      0.15725259	      0.81435954	      0.74115040	      4.92678555	     -0.56105557	    -15.29999606	     15.21385908	      0.26553193	     33.91527073	     17.61837682	      0.00000000	      2.60026573	     -1.09789077	     -6.33983323	     12.06955422	      0.21065346	     25.04697167	     -0.97081789	      0.00000000	     -0.14012763	     -0.35871351	      3.58584548	     -0.26023102	     -0.47708897	      3.80996082	     -0.23021568	     -0.87217602	      3.80996082	     -0.16015187	     -0.87217602	      3.13761479	     -0.13012252	     -0.73148858	      2.91349945	     -0.08006893	     -0.55564722	      2.68938411	     -1.00091764	     -4.05783894	     19.94339678	      0.00000000	      0.00000000	      2.09449451	      3.74349517	     -1.93823457	     -9.79426331	    -10.89768365	     10.71018236	     37.26704031	     86.31215336	     -4.57920741	      7.91046104	     13.50567232	     -9.32080486	    118.67517199	      7.33846549	     23.02056451	     -8.12634203	    -12.59532562
      2.83333333	     -0.06452952	     -2.14360180	     93.89048129	      0.15575797	      0.81407307	      0.74084976	      4.80413158	     -0.59291574	    -15.87276688	     15.24812811	      0.26613004	     34.02923868	     17.43928001	      0.00000000	      2.75335262	     -1.13414570	     -6.08969835	     12.32804197	      0.21516492	     25.29548752	     -0.68865682	      0.00000000	     -0.21277846	     -0.36426955	      3.58618211	     -0.39515088	     -0.48447850	      3.81031850	     -0.34957373	     -0.88568498	      3.81031850	     -0.24318450	     -0.88568498	      3.13790935	     -0.19758608	     -0.74281846	      2.91377297	     -0.12158161	     -0.56425353	      2.68963659	     -1.51985527	     -4.12068998	     19.94526907	      0.00000000	      0.00000000	      2.17094863	      3.08390314	      0.98220693	    -10.43297725	    -10.42654300	      8.99197961	     38.37995632	     85.33362992	     -4.50717370	      8.27580479	     13.50435589	     -9.07999622	    119.02723897	      6.95245450	     23.08079445	     -7.17685638	    -12.00980317
